<svg width="36" height="37" viewBox="0 0 36 37" fill="none" xmlns="http://www.w3.org/2000/svg">
<path d="M12.2743 34.7307V29.0739C12.2743 27.6299 13.4535 26.4593 14.9081 26.4593H20.2253C20.9238 26.4593 21.5937 26.7347 22.0877 27.2251C22.5816 27.7154 22.8591 28.3804 22.8591 29.0739V34.7307C22.8547 35.331 23.0918 35.9083 23.5179 36.3343C23.9439 36.7604 24.5237 37 25.1284 37H28.7561C30.4503 37.0043 32.0767 36.3392 33.2762 35.1515C34.4758 33.9637 35.15 32.3509 35.15 30.669V14.5537C35.15 13.195 34.5433 11.9063 33.4935 11.0346L21.1529 1.25036C19.0063 -0.465161 15.9305 -0.409771 13.848 1.38191L1.78897 11.0346C0.68957 11.8806 0.0324717 13.1732 0 14.5537V30.6525C0 34.1581 2.86265 37 6.39392 37H9.93873C11.1948 37 12.2155 35.994 12.2246 34.7471L12.2743 34.7307Z" fill="#C4C4C4"/>
</svg>
