<svg width="29" height="39" viewBox="0 0 29 39" fill="none" xmlns="http://www.w3.org/2000/svg">
<path fill-rule="evenodd" clip-rule="evenodd" d="M14.1476 38C7.05604 38 1 36.8965 1 32.4769C1 28.0574 7.01762 23.9775 14.1476 23.9775C21.2392 23.9775 27.2952 28.0178 27.2952 32.4374C27.2952 36.8551 21.2776 38 14.1476 38Z" stroke="#C4C4C4" stroke-width="1.5" stroke-linecap="round" stroke-linejoin="round"/>
<path fill-rule="evenodd" clip-rule="evenodd" d="M14.1337 17.8532C18.7874 17.8532 22.5594 14.0813 22.5594 9.42747C22.5594 4.77368 18.7874 1 14.1337 1C9.47986 1 5.70613 4.77368 5.70613 9.42747C5.69047 14.0655 9.4362 17.8375 14.0743 17.8532C14.0952 17.8532 14.1144 17.8532 14.1337 17.8532Z" stroke="#C4C4C4" stroke-width="1.5" stroke-linecap="round" stroke-linejoin="round"/>
</svg>
