<?xml version="1.0" encoding="iso-8859-1"?>
<!-- Uploaded to: SVG Repo, www.svgrepo.com, Generator: SVG Repo Mixer Tools -->
<svg fill="#000000" height="800px" width="800px" version="1.1" id="Layer_1" xmlns="http://www.w3.org/2000/svg" xmlns:xlink="http://www.w3.org/1999/xlink" 
	 viewBox="0 0 512 512" xml:space="preserve">
<g>
	<g>
		<path d="M478.162,275.416c-5.687-88.983-65.319-165.555-150.231-192.725c-3.134-24.627-24.205-43.735-49.671-43.735h-44.522
			c-25.465,0-46.536,19.108-49.67,43.735C99.158,109.861,39.525,186.433,33.838,275.416C14.175,282.181,0,300.851,0,322.783
			c0,23.279,15.966,42.899,37.521,48.489l14.897,44.691c11.381,34.143,43.206,57.081,79.195,57.081h248.775
			c35.988,0,67.814-22.939,79.194-57.08l14.898-44.692c21.555-5.59,37.52-25.209,37.52-48.489
			C512,300.851,497.825,282.181,478.162,275.416z M328.348,118.245c64.651,25.148,109.82,84.98,116.108,154.45H328.348V118.245z
			 M217.043,89.044c0-9.206,7.49-16.696,16.696-16.696h44.522c9.206,0,16.696,7.49,16.696,16.696v183.652h-77.913V89.044z
			 M183.652,118.245v154.45H67.544C73.833,203.225,119.001,143.393,183.652,118.245z M427.904,405.404
			c-6.827,20.484-25.924,34.248-47.516,34.248H131.613c-21.593,0-40.688-13.763-47.517-34.248L73.252,372.87H438.75L427.904,405.404
			z M461.913,339.478H50.087c-9.206,0-16.696-7.49-16.696-16.696c0-9.206,7.49-16.696,16.696-16.696c12.551,0,395.168,0,411.826,0
			c9.206,0,16.696,7.49,16.696,16.696C478.609,331.989,471.119,339.478,461.913,339.478z"/>
	</g>
</g>
</svg>